<svg xmlns="http://www.w3.org/2000/svg" viewBox="0 0 800 520" fill="none">
  <defs>
    <linearGradient id="bg" x1="0" y1="0" x2="800" y2="520" gradientUnits="userSpaceOnUse">
      <stop stop-color="#0b1228"/><stop offset="1" stop-color="#1a1040"/>
    </linearGradient>
    <linearGradient id="screen" x1="0" y1="0" x2="1" y2="1">
      <stop stop-color="#1e2a4a"/><stop offset="1" stop-color="#2a1858"/>
    </linearGradient>
    <radialGradient id="glow" cx="70%" cy="30%" r="50%">
      <stop stop-color="#6c4cff" stop-opacity=".45"/><stop offset="1" stop-color="#6c4cff" stop-opacity="0"/>
    </radialGradient>
  </defs>
  <rect width="800" height="520" rx="28" fill="url(#bg)"/>
  <rect width="800" height="520" rx="28" fill="url(#glow)"/>
  <!-- TV -->
  <rect x="90" y="70" width="420" height="260" rx="18" fill="#0a0e1a" stroke="rgba(255,255,255,.15)"/>
  <rect x="108" y="88" width="384" height="210" rx="10" fill="url(#screen)"/>
  <rect x="120" y="100" width="110" height="70" rx="8" fill="#32406a"/>
  <rect x="244" y="100" width="110" height="70" rx="8" fill="#3d2a6e"/>
  <rect x="368" y="100" width="110" height="70" rx="8" fill="#1f4d6e"/>
  <rect x="120" y="186" width="110" height="70" rx="8" fill="#2a3f72"/>
  <rect x="244" y="186" width="110" height="70" rx="8" fill="#452878"/>
  <rect x="368" y="186" width="110" height="70" rx="8" fill="#1a5a58"/>
  <rect x="220" y="340" width="160" height="14" rx="4" fill="#1a2035"/>
  <rect x="260" y="354" width="80" height="8" rx="3" fill="#12182a"/>
  <!-- Phone -->
  <rect x="540" y="120" width="150" height="300" rx="22" fill="#0a0e1a" stroke="rgba(255,255,255,.18)"/>
  <rect x="552" y="142" width="126" height="256" rx="12" fill="url(#screen)"/>
  <rect x="564" y="158" width="102" height="60" rx="8" fill="#3a2a6a"/>
  <rect x="564" y="230" width="48" height="48" rx="8" fill="#27406a"/>
  <rect x="618" y="230" width="48" height="48" rx="8" fill="#1f5a5a"/>
  <rect x="564" y="290" width="48" height="48" rx="8" fill="#452878"/>
  <rect x="618" y="290" width="48" height="48" rx="8" fill="#2a3f72"/>
  <circle cx="615" cy="410" r="8" fill="#2a3148"/>
  <!-- tablet floating -->
  <rect x="420" y="300" width="220" height="150" rx="14" fill="#0a0e1a" stroke="rgba(255,255,255,.14)" transform="rotate(-8 420 300)"/>
  <text x="40" y="480" fill="rgba(255,255,255,.35)" font-family="system-ui,sans-serif" font-size="14">Placeholder · demo imagery</text>
</svg>
